<svg width="135" height="49" viewBox="0 0 135 49" fill="none" xmlns="http://www.w3.org/2000/svg">
<path fill-rule="evenodd" clip-rule="evenodd" d="M0 10.1434H7.30686C9.48191 10.1434 11.1498 10.596 12.3134 11.4977C13.4773 12.3996 14.0592 13.6846 14.0592 15.3496C14.0592 17.0253 13.4773 18.3142 12.3134 19.2158C11.1498 20.1175 9.48191 20.5701 7.30686 20.5701H4.4054V26.1124H0V10.1434ZM4.4054 13.1226V17.5912H6.83835C7.69355 17.5912 8.35348 17.3976 8.81815 17.0071C9.28313 16.6163 9.51355 16.0651 9.51355 15.3496C9.51355 14.6377 9.28313 14.0861 8.81815 13.6992C8.35348 13.3159 7.69355 13.1226 6.83835 13.1226H4.4054ZM23.4242 17.2186C24.3459 17.2186 25.0058 17.0582 25.4078 16.7367C25.8063 16.4156 26.0054 15.8897 26.0054 15.156C26.0054 14.4258 25.8063 13.9075 25.4078 13.5935C25.0058 13.2795 24.3459 13.1226 23.4242 13.1226H21.5767V17.2186H23.4242ZM21.5767 20.0664V26.1124H17.1716V10.1434H23.8927C26.1422 10.1434 27.7903 10.4974 28.8369 11.2022C29.8874 11.9067 30.4108 13.0238 30.4108 14.5462C30.4108 15.6014 30.1373 16.4705 29.5943 17.1457C29.0478 17.8212 28.2236 18.3214 27.1262 18.6425C27.7276 18.7704 28.2706 19.0623 28.7471 19.5152C29.2236 19.9678 29.7039 20.6544 30.1919 21.5742L32.5897 26.1124H27.8916L25.8102 22.1437C25.3925 21.3442 24.9706 20.7966 24.537 20.5047C24.1074 20.2125 23.5373 20.0664 22.8227 20.0664H21.5767ZM35.2141 10.1434H47.0941V13.2541H39.6192V16.233H46.649V19.3434H39.6192V23.0017H47.3517V26.1124H35.2141V10.1434ZM64.7656 25.2322C63.957 25.6266 63.1137 25.9224 62.2387 26.1196C61.3601 26.3203 60.4461 26.4189 59.4935 26.4189C56.6464 26.4189 54.393 25.6741 52.7334 24.1884C51.0697 22.7024 50.2378 20.6872 50.2378 18.1424C50.2378 15.5943 51.0697 13.5753 52.7334 12.0892C54.393 10.6032 56.6464 9.8584 59.4935 9.8584C60.4461 9.8584 61.3601 9.95699 62.2387 10.1581C63.1137 10.3549 63.957 10.6507 64.7656 11.0451V14.349C63.9494 13.8271 63.145 13.4438 62.3521 13.2027C61.5554 12.958 60.7197 12.8376 59.8447 12.8376C58.2711 12.8376 57.033 13.3085 56.1347 14.2505C55.2329 15.1924 54.7835 16.4885 54.7835 18.1424C54.7835 19.7927 55.2329 21.0852 56.1347 22.0272C57.033 22.9689 58.2711 23.44 59.8447 23.44C60.7197 23.44 61.5554 23.3193 62.3521 23.0749C63.145 22.8338 63.9494 22.4505 64.7656 21.9286V25.2322ZM68.4171 26.1124H72.8222V10.1434H68.4171V26.1124ZM84.9326 12.8376C83.5891 12.8376 82.5463 13.3013 81.8043 14.2286C81.0663 15.156 80.6953 16.4592 80.6953 18.1424C80.6953 19.8217 81.0663 21.1216 81.8043 22.0487C82.5463 22.9763 83.5891 23.44 84.9326 23.44C86.2796 23.44 87.3263 22.9763 88.0683 22.0487C88.8065 21.1216 89.1776 19.8217 89.1776 18.1424C89.1776 16.4592 88.8065 15.156 88.0683 14.2286C87.3263 13.3013 86.2796 12.8376 84.9326 12.8376ZM84.9365 9.8584C87.6816 9.8584 89.8337 10.5924 91.3881 12.06C92.9461 13.5278 93.7233 15.5575 93.7233 18.1424C93.7233 20.7237 92.9461 22.7499 91.3881 24.2174C89.8337 25.6852 87.6816 26.4189 84.9365 26.4189C82.1986 26.4189 80.0507 25.6852 78.4886 24.2174C76.9304 22.7499 76.1496 20.7237 76.1496 18.1424C76.1496 15.5575 76.9304 13.5278 78.4886 12.06C80.0507 10.5924 82.1986 9.8584 84.9365 9.8584ZM97.0546 10.1434H101.46V19.716C101.46 21.0341 101.69 21.9797 102.151 22.5455C102.612 23.1114 103.361 23.3961 104.408 23.3961C105.459 23.3961 106.212 23.1114 106.673 22.5455C107.134 21.9797 107.365 21.0341 107.365 19.716V10.1434H111.77V19.716C111.77 21.9758 111.164 23.659 109.95 24.7614C108.739 25.8677 106.892 26.4189 104.408 26.4189C101.928 26.4189 100.085 25.8677 98.8746 24.7614C97.6599 23.659 97.0546 21.9758 97.0546 19.716V10.1434ZM127.961 10.6471V14.0204C127.024 13.6299 126.106 13.3342 125.216 13.137C124.321 12.9362 123.478 12.8376 122.685 12.8376C121.634 12.8376 120.853 12.9727 120.35 13.243C119.846 13.5131 119.596 13.9329 119.596 14.5026C119.596 14.9295 119.768 15.2656 120.108 15.5029C120.447 15.7401 121.064 15.9447 121.959 16.1162L123.837 16.4705C125.735 16.8282 127.086 17.3683 127.887 18.0949C128.687 18.8251 129.086 19.8585 129.086 21.1984C129.086 22.9617 128.527 24.2723 127.41 25.1301C126.29 25.9881 124.583 26.4189 122.287 26.4189C121.205 26.4189 120.119 26.3239 119.026 26.1306C117.936 25.937 116.843 25.6523 115.753 25.2762V21.7971C116.846 22.3409 117.901 22.7499 118.92 23.0274C119.94 23.3011 120.92 23.44 121.869 23.44C122.83 23.44 123.568 23.29 124.079 22.9907C124.591 22.6913 124.845 22.2608 124.845 21.7021C124.845 21.2056 124.673 20.8184 124.325 20.5483C123.978 20.2746 123.282 20.0335 122.244 19.8181L120.537 19.4641C118.83 19.1247 117.585 18.5768 116.796 17.8284C116.007 17.0836 115.613 16.0726 115.613 14.8056C115.613 13.2173 116.163 11.9942 117.261 11.1401C118.358 10.2856 119.936 9.8584 121.994 9.8584C122.931 9.8584 123.896 9.92413 124.884 10.0556C125.876 10.187 126.903 10.3845 127.961 10.6471Z" fill="black"/>
<path fill-rule="evenodd" clip-rule="evenodd" d="M0 27.8277H7.30686C9.48191 27.8277 11.1498 28.2806 12.3134 29.1823C13.4773 30.0839 14.0592 31.3689 14.0592 33.0339C14.0592 34.7096 13.4773 35.9985 12.3134 36.9001C11.1498 37.8018 9.48191 38.2547 7.30686 38.2547H4.4054V43.7967H0V27.8277ZM4.4054 30.8069V35.2755H6.83835C7.69355 35.2755 8.35348 35.0819 8.81815 34.6914C9.28313 34.3006 9.51355 33.7494 9.51355 33.0339C9.51355 32.3219 9.28313 31.7707 8.81815 31.3838C8.35348 31.0002 7.69355 30.8069 6.83835 30.8069H4.4054ZM25.3848 40.8832H18.4995L17.4139 43.7967H12.9851L19.3118 27.8277H24.5606L30.887 43.7967H26.4586L25.3848 40.8832ZM19.5969 37.926H24.2755L21.9442 31.5735L19.5969 37.926ZM28.5244 27.8277H33.3436L37.237 33.5193L41.1266 27.8277H45.9577L39.4434 37.068V43.7967H35.0383V37.068L28.5244 27.8277ZM47.8829 27.8277H52.2879V40.686H60.0205V43.7967H47.8829V27.8277ZM69.7759 30.5222C68.4324 30.5222 67.39 30.9859 66.6479 31.9129C65.9097 32.8403 65.5386 34.1438 65.5386 35.8267C65.5386 37.506 65.9097 38.8059 66.6479 39.7332C67.39 40.6606 68.4324 41.1243 69.7759 41.1243C71.1233 41.1243 72.1699 40.6606 72.912 39.7332C73.6502 38.8059 74.0209 37.506 74.0209 35.8267C74.0209 34.1438 73.6502 32.8403 72.912 31.9129C72.1699 30.9859 71.1233 30.5222 69.7759 30.5222ZM69.7801 27.543C72.5253 27.543 74.677 28.2767 76.2314 29.7445C77.7897 31.212 78.5669 33.2421 78.5669 35.8267C78.5669 38.4079 77.7897 40.4341 76.2314 41.9019C74.677 43.3694 72.5253 44.1032 69.7801 44.1032C67.0423 44.1032 64.8944 43.3694 63.3323 41.9019C61.774 40.4341 60.9929 38.4079 60.9929 35.8267C60.9929 33.2421 61.774 31.212 63.3323 29.7445C64.8944 28.2767 67.0423 27.543 69.7801 27.543Z" fill="black"/>
<path fill-rule="evenodd" clip-rule="evenodd" d="M106.775 30.9383V40.6859H108.352C110.152 40.6859 111.527 40.2698 112.476 39.4338C113.425 38.6015 113.898 37.3858 113.898 35.7976C113.898 34.213 113.425 33.0081 112.48 32.1794C111.535 31.3509 110.16 30.9383 108.352 30.9383H106.775ZM102.369 27.8276H107.016C109.61 27.8276 111.539 27.9991 112.808 28.346C114.077 28.6928 115.167 29.2769 116.077 30.1057C116.877 30.8251 117.471 31.6574 117.862 32.5994C118.248 33.5375 118.444 34.6035 118.444 35.7976C118.444 37.0022 118.248 38.0757 117.862 39.0212C117.471 39.9668 116.877 40.7992 116.077 41.5186C115.159 42.3473 114.062 42.9314 112.781 43.278C111.5 43.6248 109.579 43.7966 107.016 43.7966H102.369V27.8276Z" fill="black"/>
<path fill-rule="evenodd" clip-rule="evenodd" d="M88.8686 27.3985C90.2741 26.0962 96.9626 27.4633 97.8063 29.2905L98.688 33.5048C94.7316 34.575 91.1827 33.961 87.946 32.0591C89.3221 30.5403 90.5707 29.4426 91.3112 29.2882C90.51 29.1128 89.9124 28.7462 89.4285 28.2721L87.0259 31.4787C86.7316 31.28 86.4402 31.0709 86.1506 30.8513L88.8686 27.3985ZM98.9133 34.5819L100.132 40.4089V40.4083C93.3571 42.1408 87.9927 40.9825 83.5266 37.7923C84.6205 36.1417 85.9458 34.3766 87.2212 32.8834C90.7599 34.9308 94.6255 35.6266 98.9133 34.5819ZM82.7385 37.2014C82.4144 36.9463 82.0948 36.6807 81.7797 36.4043L85.4565 31.7335C85.7572 31.9519 86.0608 32.1607 86.3663 32.3591L82.7385 37.2014ZM100.361 41.505L101.208 45.5538C101.243 51.2972 76.3686 46.249 78.2653 40.869L81.0511 37.3296C81.3387 37.6286 81.6519 37.9202 81.9875 38.2034L79.6657 41.3028C79.8849 41.995 80.3602 42.4969 81.0572 42.8327C81.0521 42.0867 81.7692 40.5959 82.8382 38.8667C87.0879 41.9361 94.1005 43.6716 100.361 41.505ZM90.1981 45.3695C90.5445 45.4427 90.7621 45.7647 90.6835 46.0889C90.6049 46.4133 90.2604 46.6165 89.9137 46.5433C89.5672 46.4698 89.3496 46.1477 89.4282 45.8233C89.5068 45.4991 89.8513 45.296 90.1981 45.3695ZM94.6904 45.8986C95.0371 45.9721 95.2545 46.2941 95.1762 46.6183C95.0975 46.9421 94.7527 47.1456 94.4063 47.0724C94.0596 46.9989 93.8422 46.6765 93.9209 46.3524C93.9992 46.0285 94.344 45.8254 94.6904 45.8986ZM92.516 45.6981C92.8627 45.7716 93.0801 46.0937 93.0018 46.4175C92.9231 46.7417 92.5786 46.9451 92.2319 46.8719C91.8851 46.7984 91.6678 46.4761 91.7464 46.1519C91.8251 45.8278 92.1696 45.6246 92.516 45.6981ZM89.6024 34.9383C90.2665 35.2206 90.9322 35.4474 91.5969 35.6072C92.2575 35.7668 92.9267 35.8621 93.6022 35.8833C93.8806 35.8922 94.1043 36.1127 94.1011 36.3753L94.1008 36.3879L94.1727 40.0023C94.1775 40.2637 93.9576 40.4755 93.6815 40.4761L93.6818 40.477C92.5745 40.4812 91.487 40.3449 90.4176 40.0991C89.3554 39.855 88.3199 39.506 87.3053 39.0827C87.0486 38.9754 86.9275 38.6937 87.0349 38.4532C87.0458 38.4287 87.0589 38.406 87.0732 38.3842L88.9524 35.1331C89.0783 34.9144 89.3637 34.8313 89.6024 34.9383Z" fill="black"/>
<path fill-rule="evenodd" clip-rule="evenodd" d="M107.156 0L108.058 2.7444L110.994 3.5878L108.058 4.4309L107.156 7.1756L106.254 4.4309L103.318 3.5878L106.254 2.7444L107.156 0Z" fill="black"/>
<path fill-rule="evenodd" clip-rule="evenodd" d="M133.081 16.8467L133.532 18.2192L135 18.6407L133.532 19.0623L133.081 20.4348L132.63 19.0623L131.162 18.6407L132.63 18.2192L133.081 16.8467Z" fill="black"/>
<path fill-rule="evenodd" clip-rule="evenodd" d="M70.6751 3.58838L71.1363 4.99135L72.6373 5.42246L71.1363 5.85357L70.6751 7.25654L70.214 5.85357L68.7129 5.42246L70.214 4.99135L70.6751 3.58838Z" fill="black"/>
</svg>
